PathFileType	4	(X/Y/Z)	Walk9.trc
DataRate	CameraRate	NumFrames	NumMarkers	Units	OrigDataRate	OrigDataStartFrame	OrigNumFrames
200.000000	200.000000	7	56	mm	200.000000	465	502
Frame#	Times		RBHD		C7		RBack		RASI		RACR1		RUA1		RElbow		RFA1		RWRR		RCAR		LACR1		LElbow		LElbowM		LFA1		RTH1		RTH3		RTH2		RTH4		RLFC		RTB3		RTB2		RTB4		RMT1		RMT5		LTH3		LTH2		LWRU		LTH4		LPSI		CLAV		RPSI		LLFC		LTB1		LBHD		T10		LTB4		RWRU		LTB2		LMT1		LTH1		LWRR		LFHD		RFHD		LCAL		LLMAL		LMT5		RElbowM		LToe		LTB3		LMMAL		RCAL		RToe		LUA1		RLMAL		RMMAL		LCAR
			X1	Y1	Z1	X2	Y2	Z2	X3	Y3	Z3	X4	Y4	Z4	X5	Y5	Z5	X6	Y6	Z6	X7	Y7	Z7	X8	Y8	Z8	X9	Y9	Z9	X10	Y10	Z10	X11	Y11	Z11	X12	Y12	Z12	X13	Y13	Z13	X14	Y14	Z14	X15	Y15	Z15	X16	Y16	Z16	X17	Y17	Z17	X18	Y18	Z18	X19	Y19	Z19	X20	Y20	Z20	X21	Y21	Z21	X22	Y22	Z22	X23	Y23	Z23	X24	Y24	Z24	X25	Y25	Z25	X26	Y26	Z26	X27	Y27	Z27	X28	Y28	Z28	X29	Y29	Z29	X30	Y30	Z30	X31	Y31	Z31	X32	Y32	Z32	X33	Y33	Z33	X34	Y34	Z34	X35	Y35	Z35	X36	Y36	Z36	X37	Y37	Z37	X38	Y38	Z38	X39	Y39	Z39	X40	Y40	Z40	X41	Y41	Z41	X42	Y42	Z42	X43	Y43	Z43	X44	Y44	Z44	X45	Y45	Z45	X46	Y46	Z46	X47	Y47	Z47	X48	Y48	Z48	X49	Y49	Z49	X50	Y50	Z50	X51	Y51	Z51	X52	Y52	Z52	X53	Y53	Z53	X54	Y54	Z54	X55	Y55	Z55	X56	Y56	Z56

465	2.325	1103	1580.2	449.55	1074	1453.3	365.06	1005	1349.8	456.01	1160.6	961.15	478.71	1141.2	1395.6	506.48	1125	1204.6	586.98	1103.3	1073.1	618.73	1189	950.18	639.2	1290.3	850.25	596.81	1283.6	792.28	640.53	1112.8	1455.1	185.24	1005.4	1149.4	57.829	983.16	1146.2	136.31	1088	1011.9	24.214	1099.7	751.17	523.09	1104.5	563.22	492.91	1171.4	662.97	485.93	1102.3	654.57	509.94	1104.4	460.23	477.68	1097.6	179.42	383.35	1102.8	270.95	461.59	1117.4	274.73	390.44	1178.5	38.73	338.68	1150.4	29.101	426.09	1261.6	593.47	156.48	1284.7	706.84	170.44	1065.9	894.92	21.362	1220.2	672.63	143.29	995.09	972.26	260.91	1208.9	1376.9	343.08	984.87	978.01	365.23	1293.3	491.05	175	1305	389.93	234.52	1090.5	1589.8	312.78	981.66	1144.8	321.91	1248.7	315.55	239.43	1224.2	824.76	630.17	1223.1	330.06	173.49	1200	62.612	283.58	1177	760.76	139.88	1138.3	905.38	63.503	1269.5	1625.6	318.51	1232.7	1629.8	428.05	1017.5	140.99	264.62	1077.4	164.81	216.63	1177.4	71.002	204.37	1087	1041.9	527.12	1240.6	61.147	262.16	1196.5	239.23	243.09	1115.5	164.32	301.56	977.02	32.745	375.13	1230.5	36.702	362.04	1052.3	1271.7	78.989	1027.9	80.35	418.1	1056.5	97.627	332.55	1137.2	850.24	17.637
466	2.33	1108.9	1580	449.37	1080	1453.1	365.18	1010.9	1349.6	456.13	1166.8	960.72	478.97	1147.2	1395.7	506.64	1131.5	1205.2	587.86	1111.6	1073.5	619.92	1199.6	952.2	640.62	1303	854.72	597.79	1297.7	796.42	641.28	1118.7	1454.6	185.28	1009.6	1149.2	58.374	988.22	1145.7	137.61	1091.3	1011.4	24.445	1103.6	750.96	523.34	1107	563.25	493.59	1174.8	662.5	486.27	1105.6	655.04	511.15	1106	459.99	477.97	1098.1	179.34	383.32	1103.4	270.67	461.81	1118.3	274.52	390.5	1178.7	38.71	338.55	1150.1	27.968	425.02	1269.8	594.4	157.17	1291.9	707.93	171.12	1068.7	894.11	22.311	1227.7	673.27	143.76	1001.2	972.2	261.04	1215	1376.6	343.32	990.6	977.67	365.15	1302.1	491.95	176	1316.2	391.34	235.51	1096.2	1589.6	312.53	987.63	1144.5	321.9	1262.3	315.41	240.53	1238	827.93	631.16	1236.1	329	174.62	1220.9	61.304	284.94	1183	760.96	140.44	1140.6	904.53	63.524	1274.7	1625.3	317.87	1235.3	1630.3	429.53	1036	134.05	266.17	1095	159.57	218.32	1198.1	68.971	205.51	1096.1	1041.8	528.54	1261.6	60.524	263.17	1212.3	237.55	244.29	1133.5	160.11	303.08	977.11	32.874	375.15	1231.7	38.594	364.43	1057	1271.5	79.508	1028	80.526	418	1056.3	97.571	333.17	1139.5	849.66	17.271
467	2.335	1114.7	1579.9	449.28	1086	1452.8	365.28	1016.8	1349.6	456.28	1172.7	960.19	479.43	1153.2	1395.8	506.76	1138.1	1205.7	588.63	1119.7	1073.8	621.43	1210.2	954.15	641.81	1315.6	859.14	598.77	1311.5	800.59	642.2	1124.6	1454.1	185.37	1013.8	1149	59.006	992.71	1145.9	138.43	1094.4	1010.9	24.646	1107.9	750.63	523.59	1109.5	563.14	494.14	1178.1	661.69	486.76	1109	655.46	512.03	1107.9	459.85	478.11	1098.7	179.18	383.29	1104.2	269.88	462.53	1119.5	274.39	390.41	1178.9	38.633	338.53	1149.9	27.002	423.88	1277.8	595.18	157.97	1299.1	708.97	171.86	1071.3	893.7	22.63	1235.2	673.66	144.29	1007.2	971.84	261.02	1221	1376.4	343.52	996.35	977.55	365.25	1310.7	492.8	176.91	1327	392.58	236.63	1102.1	1589	312.25	993.48	1144.2	321.93	1275.5	315.05	241.71	1251	830.51	631.76	1248.9	328	175.8	1242	59.702	286.15	1187.8	760.77	141.47	1143	903.61	63.552	1279.7	1625.1	317.22	1238.2	1630.7	430.81	1054.9	127.34	267.8	1112.7	154.27	220.11	1218.8	66.789	206.83	1105	1041.5	529.87	1282.7	59.976	264.36	1228	235.72	245.63	1151.5	156.48	304.26	977.2	33.091	375.05	1232.3	38.909	366.04	1061.9	1271	79.903	1028.3	80.734	417.88	1056.2	97.179	333.32	1142	848.9	16.888
468	2.34	1120.5	1579.7	449.23	1092	1452.5	365.48	1022.8	1349.5	456.49	1177.9	959.58	480.17	1159.1	1395.8	506.94	1144.7	1206	589.46	1127.8	1074.1	622.82	1220.6	956.03	642.99	1328.1	863.6	599.81	1325.3	804.77	642.87	1130.5	1453.4	185.46	1018.3	1149.1	59.703	996.94	1145.9	138.83	1097.8	1010.2	24.742	1112.3	750.36	523.66	1112.3	562.94	494.41	1181.5	661.09	487.12	1112.5	655.67	512.69	1109.8	459.62	478.34	1099.1	178.94	383.38	1105.4	270.06	462.22	1120.6	274.18	390.38	1179	38.6	338.57	1149.8	26.437	423.08	1285.7	595.94	158.74	1306.1	709.72	172.65	1074.1	893.02	23.403	1242.8	674.19	144.66	1013.2	971.64	261.05	1227.1	1376	343.84	1002.1	977.33	365.2	1319	493.45	178.06	1337.7	393.84	237.64	1108	1588.7	312.01	999.45	1144	321.89	1288.6	314.78	242.81	1263.4	832.76	632.2	1261.6	326.75	176.98	1263.1	58.019	287.17	1192.8	760.53	142.32	1145.3	902.67	63.545	1284.6	1624.8	316.58	1241.5	1631.1	431.87	1073.8	120.72	269.46	1130.9	149.03	221.59	1239.5	64.83	208.11	1113.8	1041.4	531.2	1304	59.993	265.14	1243.5	233.84	247.03	1169.9	152.33	305.81	977.21	33.327	374.88	1232.2	38.804	367.36	1066.8	1270.6	80.381	1028.5	80.889	417.85	1056.4	96.911	333.24	1144.4	848.23	16.544
469	2.345	1126.5	1579.5	449.04	1098	1452.2	365.59	1028.9	1349.2	456.7	1182.5	958.9	481.18	1165	1395.9	507.02	1151.2	1206.3	590.38	1135.8	1074.4	624.4	1231.1	958	644.24	1340.5	868.25	600.81	1338.9	809.05	643.44	1136.5	1452.8	185.56	1022.7	1148.8	60.448	1001.8	1145.5	139.23	1101.1	1009.5	25.004	1116.6	749.99	523.6	1115.1	562.81	494.63	1185.1	660.46	487.36	1115.9	655.5	513.22	1111.8	459.29	478.45	1099.8	178.77	383.38	1106.6	270.01	461.99	1121.5	273.88	390.52	1180	40.455	340.07	1150.1	27.485	424.08	1293.5	596.44	159.55	1313.2	710.46	173.41	1077.1	892.2	25.071	1250	674.47	145.17	1019.3	971.29	261.14	1233.1	1375.6	344.08	1007.8	977.04	365.12	1327.3	494.18	178.92	1348.4	395.05	238.52	1113.9	1588.2	311.9	1005.3	1143.8	321.78	1301.7	314.41	243.9	1276.6	835.7	632.49	1274.3	325.51	178.09	1284.4	56.647	287.83	1202.2	760.84	141.79	1147.8	901.61	63.583	1289.2	1624.5	315.95	1245.1	1631.6	432.71	1093	113.64	271.19	1149.4	143.82	223.14	1260.2	63.054	209.35	1122.6	1041.4	532.74	1325.3	60.209	265.72	1259.2	232.15	248.28	1188.3	148.18	307.45	977.16	33.569	374.71	1232	38.642	368.1	1071.9	1270.2	80.8	1028.8	80.972	417.87	1056.7	96.833	333.1	1146.9	847.41	16.139
470	2.35	1132.6	1579.2	448.97	1104	1451.9	365.63	1034.9	1348.9	457.12	1186.7	958.17	482.37	1170.8	1395.9	507.33	1157.7	1206.6	591.3	1144	1074.6	625.92	1241.7	960.17	645.37	1352.6	872.79	601.78	1352.6	813.33	644.01	1142.5	1452.2	185.65	1026.9	1148.4	60.907	1006.7	1145.3	139.86	1104.4	1008.7	25.163	1121.2	749.9	523.78	1118.1	562.79	495.02	1188.7	659.76	487.58	1119.6	655.21	513.65	1113.7	459.05	478.53	1100.4	178.64	383.38	1107.7	269.77	462.01	1122.5	273.63	390.5	1180.7	41.747	341.16	1150.4	28.489	425.5	1301.1	597	160.46	1320.1	711.02	174.28	1079.9	891.3	26.071	1257.3	674.75	145.65	1025.4	970.91	261.31	1239.1	1375.2	344.3	1013.6	976.76	365.08	1335.2	494.47	179.93	1359	396.19	239.34	1119.9	1587.6	311.59	1011.1	1143.6	321.79	1314.7	313.93	245	1289.7	838.73	632.98	1287.1	324.27	179	1305.7	55.758	288.59	1211.2	761.21	141.27	1150.4	900.6	63.47	1293.7	1624.2	315.35	1249.1	1632	433.31	1112.8	106.79	272.84	1168.1	138.67	224.63	1280.9	61.115	210.84	1131.3	1041	534.21	1346.4	60.275	266.73	1274.9	230.51	249.36	1206.6	144.24	308.99	977.17	33.812	374.55	1231.9	38.43	368.19	1077.1	1269.6	81.186	1029	81.046	417.86	1057.1	96.872	332.95	1149.3	846.5	15.754
471	2.355	1138.5	1578.9	448.83	1110	1451.5	365.65	1041	1348.5	457.25	1190.7	957.42	483.63	1176.7	1395.8	507.51	1164.2	1206.8	592.15	1152.1	1075	627.03	1252	962.18	646.49	1364.6	877.21	602.63	1366.1	817.63	644.62	1148.7	1451.4	185.53	1031.6	1148	61.558	1011.7	1145.1	140.9	1107.7	1007.9	25.373	1125.5	749.74	524.08	1121.2	562.83	495.44	1192.4	659.14	487.73	1123.4	655.05	513.85	1115.9	458.84	478.63	1101	178.44	383.42	1108.9	269.57	462.08	1123.8	273.34	390.51	1180.5	40.827	340.46	1150.6	28.815	426.21	1308.5	597.33	161.32	1326.8	711.54	175.41	1082.8	890.53	26.609	1264.6	674.8	146.09	1031.7	970.16	261.33	1245.2	1374.6	344.49	1019.4	976.44	364.99	1342.9	494.68	180.93	1369.1	397.05	240.25	1125.9	1586.9	311.05	1017.3	1143.3	321.62	1327.6	313.57	245.92	1302.5	841.82	633.71	1299.6	322.95	180.11	1327.4	54.808	289.62	1218.7	761.26	141.32	1153.2	899.55	63.369	1297.9	1623.9	314.77	1253.6	1632.4	433.69	1132.6	99.927	274.53	1186.9	133.5	226.12	1302	59.606	212.04	1139.8	1040.8	535.53	1367.6	60.462	267.78	1290.7	228.87	250.44	1225.2	140.38	310.45	977.2	34.041	374.36	1231.2	35.62	365.66	1082.3	1269.1	81.676	1029.2	81.109	417.83	1057.3	96.93	332.83	1151.7	845.66	15.449
